<?xml version="1.0" encoding="utf-8"?>
<!-- Generator: Adobe Illustrator 27.3.1, SVG Export Plug-In . SVG Version: 6.00 Build 0)  -->
<svg version="1.1" xmlns="http://www.w3.org/2000/svg" xmlns:xlink="http://www.w3.org/1999/xlink" x="0px" y="0px"
	 viewBox="0 0 1000 1000" style="enable-background:new 0 0 1000 1000;" xml:space="preserve">
<style type="text/css">
	.st0{fill:#ACACAC;}
</style>
<g id="Dark_Blue">
</g>
<g id="Logo__x2014__FIXED">
	<path class="st0" d="M500,125c-207.1,0-375,167.9-375,375s167.9,375,375,375s375-167.9,375-375S707.1,125,500,125z M688.3,428.9
		c0.2,3.9,0.3,7.8,0.3,11.7c0,119.5-90.9,257.2-257.2,257.2c-51.1,0-98.6-15-138.6-40.6c7.1,0.8,14.3,1.3,21.6,1.3
		c42.4,0,81.3-14.4,112.3-38.7c-39.6-0.7-72.9-26.9-84.5-62.8c5.5,1.1,11.2,1.6,17,1.6c8.2,0,16.2-1.1,23.8-3.2
		c-41.4-8.3-72.5-44.8-72.5-88.6c0-0.4,0-0.8,0-1.2c12.2,6.8,26.1,10.9,40.9,11.3c-24.3-16.2-40.2-43.9-40.2-75.2
		c0-16.6,4.5-32.1,12.2-45.4c44.6,54.7,111.2,90.7,186.3,94.4c-1.6-6.6-2.3-13.5-2.3-20.6c0-49.9,40.5-90.4,90.4-90.4
		c26,0,49.5,11,66,28.6c20.6-4.1,39.9-11.6,57.4-21.9c-6.8,21.1-21.1,38.8-39.8,50c18.3-2.2,35.7-7,51.9-14.2
		C721.3,400.2,706,416.1,688.3,428.9z"/>
</g>
<g id="Annotations">
</g>
</svg>
